<svg width="24" height="25" viewBox="0 0 24 25" fill="none" xmlns="http://www.w3.org/2000/svg">
<g opacity="0.6">
<path fill-rule="evenodd" clip-rule="evenodd" d="M9.5999 5.29999C6.94894 5.29999 4.7999 7.44903 4.7999 10.1C4.7999 12.751 6.94894 14.9 9.5999 14.9C12.2509 14.9 14.3999 12.751 14.3999 10.1C14.3999 7.44903 12.2509 5.29999 9.5999 5.29999ZM2.3999 10.1C2.3999 6.12354 5.62345 2.89999 9.5999 2.89999C13.5764 2.89999 16.7999 6.12354 16.7999 10.1C16.7999 11.655 16.307 13.0949 15.4688 14.2718L21.2484 20.0515C21.7171 20.5201 21.7171 21.2799 21.2484 21.7485C20.7798 22.2172 20.02 22.2172 19.5514 21.7485L13.7717 15.9689C12.5948 16.807 11.1549 17.3 9.5999 17.3C5.62345 17.3 2.3999 14.0764 2.3999 10.1Z" fill="#0078D4"/>
</g>
</svg>
